<?xml version="1.0" encoding="UTF-8"?>
<svg version="1.1" xmlns="http://www.w3.org/2000/svg" width="382" height="387">
<path d="M0 0 C1.64453125 1.078125 1.64453125 1.078125 3 3 C4.26122184 13.22578884 3.70007753 27.59984494 -1 37 C7.08524239 38.69302828 11.61584324 36.96204177 18.8125 33.1875 C19.73998047 32.72279297 20.66746094 32.25808594 21.62304688 31.77929688 C24.79435904 30.1856382 27.95257887 28.57085997 31.0690918 26.87231445 C34.14946412 25.48071371 36.68301453 25.63814704 40 26 C42 27.5 42 27.5 43 30 C42.86032673 37.54235637 40.16574324 44.82786423 38 52 C38.70125 52.54527344 39.4025 53.09054688 40.125 53.65234375 C52.18673893 63.23945961 59.87440351 71.146705 61.78369141 86.87451172 C61.99034371 88.78569568 62.15252871 90.70153135 62.3125 92.6171875 C63.53362474 98.62567629 67.19360373 101.41216964 72.125 104.6875 C74.64159795 106.37145501 76.8580143 107.8580143 79 110 C80.8387201 121.11784246 75.17013753 131.1620977 69 140 C60.97920978 150.17713332 49.27869807 153.88294302 37.26123047 157.37695312 C32.07302737 158.96337343 28.90586851 160.11465703 26 165 C21.39159997 174.21680007 26.38015113 187.84327592 28.80859375 197.1171875 C33.35216833 215.04752389 32.69542666 236.13797262 28 254 C27.70198486 255.1432373 27.70198486 255.1432373 27.39794922 256.30957031 C19.54738405 285.41840747 0.73421603 312.16796941 -25.5 327.59375 C-26.325 328.0578125 -27.15 328.521875 -28 329 C0.42272751 322.90698416 24.63181136 310.96504186 41.0703125 286.06640625 C43.33252185 282.4715999 45.20829607 278.84147221 47 275 C50.97352825 266.92698151 54.37570847 260.62220244 63 257 C70.05273459 256.05817519 76.22047356 256.68748684 82 261 C87.69785656 266.24101283 90.00083892 271.32576134 90.4375 279.0625 C90.03841978 295.51347366 77.81767506 313.27950854 67 325 C66.20746826 325.86407471 66.20746826 325.86407471 65.39892578 326.74560547 C56.49432431 336.35037217 47.11725441 344.09983184 36 351 C35.42459473 351.36673828 34.84918945 351.73347656 34.25634766 352.11132812 C11.43071047 366.569562 -13.51625488 372.22429726 -40.25 372.3125 C-41.00711273 372.31511841 -41.76422546 372.31773682 -42.54428101 372.32043457 C-54.78394534 372.32496604 -66.1677204 371.31552493 -78 368 C-79.14082031 367.71125 -80.28164062 367.4225 -81.45703125 367.125 C-103.3455733 361.0793361 -122.4735809 349.34279016 -139 334 C-139.52577637 333.51805176 -140.05155273 333.03610352 -140.59326172 332.53955078 C-162.69556455 312.09855477 -177.2663621 285.47237549 -179.24609375 255.2421875 C-179.81341689 225.4076647 -167.29214671 198.59238848 -147.14306641 177.09375 C-141.27283785 171.04287306 -134.76925589 165.99492774 -128 161 C-126.6477029 159.9905667 -125.29616072 158.9801214 -123.9453125 157.96875 C-123.26315674 157.45820068 -122.58100098 156.94765137 -121.87817383 156.42163086 C-121.19650146 155.91124268 -120.5148291 155.40085449 -119.8125 154.875 C-119.13791748 154.3704126 -118.46333496 153.8658252 -117.76831055 153.34594727 C-97.24180921 137.95921968 -86.26144171 123.04573033 -79.75 98.0625 C-72.43253304 71.14964353 -59.41477002 47.15320818 -40 27 C-39.52191895 26.4961377 -39.04383789 25.99227539 -38.55126953 25.47314453 C-12.38341253 -2.01590437 -12.38341253 -2.01590437 0 0 Z " fill="#1F1F1F" transform="translate(234,3)"/>
<path d="M0 0 C0.66 0.33 1.32 0.66 2 1 C-2.96797473 14.73498897 -9.35625999 25.64453206 -22.609375 32.51171875 C-39.66929134 40 -39.66929134 40 -46 40 C-46 39.34 -46 38.68 -46 38 C-40.19959816 35.43891507 -34.5717213 33.03455463 -28.375 31.625 C-17.50001818 28.77716304 -10.57196871 21.48840792 -5 12 C-3.12888944 8.06657051 -1.48597072 4.09356358 0 0 Z " fill="#838383" transform="translate(311,122)"/>
<path d="M0 0 C1.9375 1.75 1.9375 1.75 3 4 C3 5.32 3 6.64 3 8 C2.34 8 1.68 8 1 8 C0.505 5.525 0.505 5.525 0 3 C-6.1225699 2.50379172 -9.84999399 3.9782127 -15.1875 6.875 C-15.88552734 7.23980469 -16.58355469 7.60460938 -17.30273438 7.98046875 C-19.96688691 9.37464943 -22.61686181 10.78469372 -25.23828125 12.2578125 C-27 13 -27 13 -31 13 C-31 13.66 -31 14.32 -31 15 C-32.45922693 14.88590407 -33.91740598 14.75834456 -35.375 14.625 C-36.18710938 14.55539063 -36.99921875 14.48578125 -37.8359375 14.4140625 C-40 14 -40 14 -42 12 C-39 11 -39 11 -35.98046875 11.73828125 C-30.21066357 12.11765019 -26.360374 9.78706717 -21.3125 7.1875 C-19.90774414 6.49043945 -19.90774414 6.49043945 -18.47460938 5.77929688 C-15.26975967 4.18487843 -12.07125043 2.58260988 -8.92651367 0.87231445 C-5.84868308 -0.52130976 -3.31505869 -0.36164277 0 0 Z " fill="#7C7C7C" transform="translate(274,29)"/>
<path d="M0 0 C0 0.99 0 1.98 0 3 C-1.96875 4.60546875 -1.96875 4.60546875 -4.5 6.1875 C-5.3353125 6.71730469 -6.170625 7.24710937 -7.03125 7.79296875 C-7.6809375 8.19128906 -8.330625 8.58960938 -9 9 C-8.45061768 8.85377197 -7.90123535 8.70754395 -7.33520508 8.55688477 C-4.82805264 7.89051352 -2.32028493 7.22648682 0.1875 6.5625 C1.05181641 6.33240234 1.91613281 6.10230469 2.80664062 5.86523438 C6.85396263 4.79525269 10.87672667 3.74270141 15 3 C15 3.66 15 4.32 15 5 C14.33613281 5.19335938 13.67226562 5.38671875 12.98828125 5.5859375 C7.67359908 7.12302033 7.67359908 7.12302033 2.5 9.0625 C-3.39926704 11.27472514 -9.7073048 12.33119448 -16 12 C-16 11.34 -16 10.68 -16 10 C-14.53125 8.85498047 -14.53125 8.85498047 -12.5 7.6171875 C-11.4171875 6.95009766 -11.4171875 6.95009766 -10.3125 6.26953125 C-9.549375 5.80933594 -8.78625 5.34914063 -8 4.875 C-6.8553125 4.17310547 -6.8553125 4.17310547 -5.6875 3.45703125 C-3.79550727 2.2981857 -1.89965148 1.14623253 0 0 Z " fill="#6E6E6E" transform="translate(216,323)"/>
<path d="M0 0 C0.66 0 1.32 0 2 0 C2.33 1.32 2.66 2.64 3 4 C2.34 4 1.68 4 1 4 C-0.32 9.28 -1.64 14.56 -3 20 C-3.66 20 -4.32 20 -5 20 C-4.35587386 17.22875964 -3.70977252 14.45800555 -3.0625 11.6875 C-2.88009766 10.90181641 -2.69769531 10.11613281 -2.50976562 9.30664062 C-2.33251953 8.54931641 -2.15527344 7.79199219 -1.97265625 7.01171875 C-1.81031494 6.31522217 -1.64797363 5.61872559 -1.48071289 4.90112305 C-1.06234435 3.2465594 -0.53968631 1.61905892 0 0 Z " fill="#636363" transform="translate(157,91)"/>
<path d="M0 0 C0.66 0 1.32 0 2 0 C2 2.31 2 4.62 2 7 C1.01 7.33 0.02 7.66 -1 8 C-1.73323796 10.01508358 -1.73323796 10.01508358 -2 12 C-2.66 12 -3.32 12 -4 12 C-2.66666667 8 -1.33333333 4 0 0 Z " fill="#585A59" transform="translate(151,113)"/>
<path d="M0 0 C2.24312483 0.18199796 4.44903989 0.51986035 6.67578125 0.84375 C9.04057814 1.00272794 10.75071455 0.70000646 13 0 C13 0.66 13 1.32 13 2 C12.01 2 11.02 2 10 2 C10 2.66 10 3.32 10 4 C8.54077307 3.88590407 7.08259402 3.75834456 5.625 3.625 C4.40683594 3.52058594 4.40683594 3.52058594 3.1640625 3.4140625 C1 3 1 3 -1 1 C-0.67 0.67 -0.34 0.34 0 0 Z " fill="#828282" transform="translate(233,40)"/>
<path d="M0 0 C0.66 0 1.32 0 2 0 C1.67 2.97 1.34 5.94 1 9 C0.01 9.33 -0.98 9.66 -2 10 C-1.34 6.7 -0.68 3.4 0 0 Z " fill="#575758" transform="translate(59,226)"/>
</svg>
