<?xml version="1.0" standalone="no"?>
<!DOCTYPE svg PUBLIC "-//W3C//DTD SVG 20010904//EN"
 "http://www.w3.org/TR/2001/REC-SVG-20010904/DTD/svg10.dtd">
<svg version="1.0" xmlns="http://www.w3.org/2000/svg"
 width="400.000000pt" height="400.000000pt" viewBox="0 0 400.000000 400.000000"
 preserveAspectRatio="xMidYMid meet">

<g transform="translate(0.000000,400.000000) scale(0.100000,-0.100000)"
fill="#000000" stroke="none">
<path d="M2205 3869 c-99 -52 -301 -234 -388 -349 -158 -209 -247 -394 -317
-660 -62 -236 -131 -327 -400 -526 -170 -126 -253 -200 -329 -292 -164 -197
-242 -410 -242 -660 0 -183 27 -291 113 -451 181 -343 518 -603 905 -701 176
-44 439 -51 618 -15 277 54 539 190 727 378 109 109 182 211 244 342 67 142
69 229 8 311 -29 38 -100 74 -146 74 -91 0 -153 -49 -205 -160 -19 -41 -54
-104 -78 -140 -92 -139 -275 -290 -426 -351 -92 -38 -339 -100 -339 -85 0 2
35 25 79 50 305 179 515 512 562 889 18 148 -2 399 -40 499 -5 13 -14 58 -21
100 -12 72 -11 79 10 123 31 63 97 104 210 130 8 2 41 13 73 25 120 45 243
210 254 341 l6 58 -49 33 c-93 63 -121 97 -128 158 -21 168 -53 233 -155 318
-33 28 -68 55 -78 60 -16 9 -15 17 11 103 15 52 29 99 31 104 1 6 -1 20 -6 33
-14 38 -61 28 -202 -42 -122 -61 -130 -63 -174 -55 -26 5 -48 11 -51 13 -2 3
5 58 17 123 24 133 27 213 9 231 -18 18 -59 14 -103 -9z"/>
</g>
</svg>
