<?xml version="1.0" standalone="no"?>
<!DOCTYPE svg PUBLIC "-//W3C//DTD SVG 20010904//EN"
 "http://www.w3.org/TR/2001/REC-SVG-20010904/DTD/svg10.dtd">
<svg version="1.0" xmlns="http://www.w3.org/2000/svg"
 width="50.000000pt" height="53.000000pt" viewBox="0 0 50.000000 53.000000"
 preserveAspectRatio="xMidYMid meet">

<g transform="translate(0.000000,53.000000) scale(0.100000,-0.100000)"
fill="#000000" stroke="none">
<path d="M0 265 l0 -265 250 0 250 0 0 265 0 265 -250 0 -250 0 0 -265z m431
136 c24 -25 29 -37 29 -81 0 -85 -48 -170 -97 -170 -13 0 -23 5 -23 11 0 6
-12 1 -26 -10 -43 -34 -91 -27 -85 12 2 13 -7 8 -37 -23 -24 -23 -39 -30 -71
-30 -35 0 -41 3 -47 26 -15 60 45 168 129 232 61 46 96 60 155 61 35 1 49 -5
73 -28z"/>
<path d="M317 344 c-15 -15 -7 -45 11 -42 9 2 17 12 17 22 0 20 -16 31 -28 20z"/>
<path d="M378 338 c-7 -19 2 -38 17 -38 15 0 24 19 18 38 -3 6 -11 12 -18 12
-7 0 -15 -6 -17 -12z"/>
</g>
</svg>
